<svg xmlns:xlink="http://www.w3.org/1999/xlink" data-component-name="icon" xmlns="http://www.w3.org/2000/svg" focusable="false" aria-hidden="true" class="a-icon a-icon--ui-aviation a-icon--medium-24" width="24"  height="24" ><defs><symbol viewBox="0 0 24 24" id="flight-with-stops"><path fill="#fff" d="M11 10H13V14H11z"></path><path d="M19 9a3 3 0 1 1-2.762 4.173l-.067-.172L13 13v-2h3.17A3.001 3.001 0 0 1 19 9ZM5 9c1.306 0 2.418.835 2.83 2H11v2H7.829A3.001 3.001 0 1 1 5 9Zm0 2a1 1 0 1 0 0 2 1 1 0 0 0 0-2Z"></path></symbol></defs><use xlink:href="#flight-with-stops"></use></svg>